<svg width="57" height="37" viewBox="0 0 57 37" fill="none" xmlns="http://www.w3.org/2000/svg">
<path fill-rule="evenodd" clip-rule="evenodd" d="M33.8602 33.6471C33.2729 34.4301 32.8445 35.2908 32.5843 36.2033C32.5097 36.4648 32.449 36.7306 32.4023 37H24.1273C23.9116 35.7882 23.4116 34.6262 22.6744 33.6471L0.535446 4.24385C-0.0728163 3.43604 -0.170259 2.372 0.281163 1.46705C0.732435 0.562097 1.64099 0 2.65226 0H53.8824C54.8935 0 55.8021 0.562097 56.2535 1.46705C56.7049 2.372 56.6075 3.43604 55.9992 4.24385L33.8602 33.6471ZM31.1582 33.7281C31.4173 33.2283 31.7191 32.7408 32.0583 32.2901L47.845 11.3226C47.7134 11.371 47.5816 11.4179 47.4491 11.4635C45.4587 12.1495 43.2866 12.5968 40.9931 12.7937C40.3735 12.8467 39.8263 12.3869 39.7731 11.7663C39.7199 11.1457 40.1799 10.5996 40.8005 10.5463C42.9093 10.3654 44.899 9.95656 46.7144 9.331C48.1802 8.82605 49.5809 8.13823 50.883 7.28862L54.1973 2.88688C54.3249 2.71741 54.2758 2.5553 54.235 2.4738C54.1944 2.3923 54.0944 2.25561 53.8824 2.25561H2.65226C2.44023 2.25561 2.34023 2.3923 2.29963 2.4738C2.25903 2.5553 2.20971 2.71741 2.33738 2.88688L4.59043 5.87932C10.7468 5.62264 16.9044 7.0453 22.8666 8.4228L22.8676 8.42304C27.091 9.39852 31.3603 10.3164 35.6992 10.5839C36.3208 10.6223 36.7937 11.1573 36.7552 11.7789C36.7169 12.4003 36.1817 12.8732 35.5602 12.835C31.0962 12.5609 26.7047 11.6234 22.3598 10.6208C17.0683 9.39822 11.6169 8.13884 6.2674 8.10545L24.4762 32.2901C25.061 33.0668 25.5617 33.9839 25.8969 34.9093H30.6367C30.7838 34.5034 30.96 34.1105 31.1582 33.7281Z" fill="black"/>
<path d="M28.2674 14.5279C24.3704 14.5279 21.2001 17.6983 21.2001 21.5952C21.2001 25.4921 24.3704 28.6625 28.2674 28.6625C32.1642 28.6625 35.3345 25.4921 35.3345 21.5952C35.3345 17.6983 32.1642 14.5279 28.2674 14.5279ZM28.2674 26.4069C25.6142 26.4069 23.4557 24.2484 23.4557 21.5952C23.4557 18.942 25.6142 16.7835 28.2674 16.7835C30.9206 16.7835 33.0789 18.942 33.0789 21.5952C33.0789 24.2484 30.9204 26.4069 28.2674 26.4069Z" fill="black"/>
<path d="M30.5526 20.762C29.9343 20.6898 29.3743 21.1343 29.303 21.7531C29.2409 22.2916 28.7543 22.7955 28.2182 22.8762C27.6021 22.969 27.1782 23.5436 27.271 24.1594C27.3552 24.7185 27.8363 25.1194 28.3847 25.1194C28.4406 25.1194 28.4973 25.1153 28.5542 25.1066C30.1065 24.8726 31.3637 23.5711 31.5436 22.0116C31.6152 21.393 31.1714 20.8334 30.5526 20.762Z" fill="black"/>
</svg>
