<?xml version="1.0" standalone="no"?>
<!DOCTYPE svg PUBLIC "-//W3C//DTD SVG 20010904//EN"
 "http://www.w3.org/TR/2001/REC-SVG-20010904/DTD/svg10.dtd">
<svg version="1.0" xmlns="http://www.w3.org/2000/svg"
 width="912.000000pt" height="912.000000pt" viewBox="0 0 912.000000 912.000000"
 preserveAspectRatio="xMidYMid meet">
<metadata>
Created by potrace 1.11, written by Peter Selinger 2001-2013
</metadata>
<g transform="translate(0.000000,912.000000) scale(0.100000,-0.100000)"
fill="#000000" stroke="none">
<path d="M300 7501 c-86 -27 -187 -101 -227 -166 -20 -32 -54 -108 -61 -135
-10 -38 -8 -192 2 -215 5 -11 11 -28 12 -38 2 -9 16 -36 31 -60 24 -38 131
-185 143 -197 3 -3 57 -75 120 -160 63 -85 120 -162 127 -170 14 -18 149 -197
178 -236 11 -15 26 -33 33 -40 6 -7 12 -17 12 -23 0 -6 3 -11 8 -11 4 0 18
-17 32 -38 14 -20 33 -46 42 -56 10 -11 30 -38 45 -60 15 -23 31 -43 34 -46 3
-3 102 -133 219 -290 118 -157 218 -289 223 -295 4 -5 26 -35 48 -65 23 -30
50 -66 60 -80 119 -154 289 -383 289 -390 0 -5 4 -10 8 -12 5 -1 35 -39 68
-83 32 -44 61 -82 64 -85 3 -3 23 -30 45 -60 22 -30 50 -66 62 -80 13 -14 23
-28 23 -32 0 -3 6 -13 13 -20 7 -7 30 -38 52 -68 22 -30 42 -57 45 -60 3 -3
46 -59 95 -125 50 -66 92 -122 95 -125 3 -3 30 -39 60 -80 30 -41 60 -82 67
-90 8 -8 47 -60 88 -115 41 -55 83 -111 94 -125 10 -14 64 -86 120 -160 55
-74 104 -139 109 -145 4 -5 64 -84 132 -175 68 -91 127 -166 132 -168 4 -2 8
-8 8 -13 0 -5 26 -42 58 -83 31 -40 65 -85 76 -100 50 -69 200 -268 249 -328
20 -25 37 -51 37 -56 0 -5 7 -12 15 -16 8 -3 15 -12 15 -20 0 -8 4 -16 8 -18
12 -5 123 -153 175 -234 73 -113 140 -274 168 -403 l11 -51 661 2 661 3 8 35
c5 19 11 46 14 59 19 89 130 339 164 371 3 3 40 52 82 110 42 58 84 114 92
125 9 11 91 119 182 240 90 121 170 227 177 235 7 8 23 31 37 50 13 19 27 37
30 40 3 3 25 32 49 65 25 33 48 62 53 63 4 2 8 10 8 17 0 7 3 15 8 17 6 3 399
519 442 581 14 20 209 280 227 302 5 6 42 55 82 109 41 55 80 107 87 115 25
30 229 304 254 340 14 20 37 50 52 66 16 17 28 35 28 42 0 6 4 13 9 15 4 2 79
98 165 213 86 116 162 217 169 225 21 26 786 1043 832 1106 11 15 25 32 30 38
6 6 22 27 35 46 13 19 27 37 30 40 3 3 30 39 60 80 30 41 60 82 67 90 7 8 58
76 113 150 56 74 109 144 118 155 9 11 24 30 32 42 8 11 29 41 45 65 153 220
79 506 -163 625 l-76 38 -4185 2 c-3979 2 -4189 1 -4241 -16z m295 -344 c22 1
49 3 60 4 11 1 45 1 75 0 30 0 63 -1 73 -1 9 0 23 -1 30 -1 6 -1 32 -1 57 0
25 0 54 0 65 -1 11 0 38 0 60 1 22 0 47 1 55 0 8 -1 35 -1 60 0 49 1 297 2
318 1 6 0 18 -1 25 -1 6 -1 32 -1 57 0 25 0 54 0 65 -1 11 0 38 0 60 1 22 0
47 1 55 0 8 -1 35 -1 60 0 25 0 68 1 95 0 28 0 59 1 70 2 11 0 45 1 75 0 30 0
63 -1 73 -1 9 0 23 -1 30 -1 6 -1 32 -1 57 0 25 0 54 0 65 -1 11 0 38 0 60 1
22 0 47 1 55 0 8 -1 35 -1 60 0 65 1 263 2 278 1 6 0 20 -1 30 -2 9 0 35 0 57
1 22 0 47 1 55 0 8 -1 35 -1 60 0 25 1 67 0 93 -1 27 -2 51 0 54 4 2 5 11 5
19 0 8 -5 37 -5 64 -2 27 3 55 3 62 -1 7 -4 34 -4 60 0 26 4 53 4 60 0 6 -4
15 -6 18 -4 8 5 81 6 143 3 27 -2 51 0 54 4 2 5 11 5 19 0 8 -5 37 -5 64 -2
27 4 55 3 62 -2 7 -4 20 -6 28 -3 8 2 31 5 50 5 47 1 851 1 868 0 6 0 20 -1
30 -2 9 0 35 0 57 1 22 0 47 1 55 0 8 -1 35 -1 60 0 25 1 67 0 93 -1 27 -2 51
0 54 4 2 5 11 5 19 0 8 -5 37 -5 64 -2 27 3 55 3 62 -1 7 -4 34 -4 60 0 26 4
53 4 60 0 6 -4 15 -6 18 -4 8 5 81 6 143 3 27 -2 51 0 54 4 2 5 11 5 19 0 8
-5 37 -5 64 -2 27 4 55 3 62 -2 7 -4 20 -6 28 -3 8 2 31 5 50 5 47 1 851 1
868 0 6 0 20 -1 30 -2 9 0 35 0 57 1 22 0 47 1 55 0 8 -1 35 -1 60 0 25 1 67
0 93 -1 27 -2 51 0 54 4 2 5 11 5 19 0 8 -5 37 -5 64 -2 27 3 55 3 62 -1 7 -4
34 -4 60 0 26 4 53 4 60 0 6 -4 15 -6 18 -4 8 5 81 6 143 3 27 -2 51 0 54 4 2
5 11 5 19 0 8 -5 37 -5 64 -2 27 4 55 3 62 -2 7 -4 20 -6 28 -3 17 5 38 6 195
6 116 0 127 0 148 -2 6 -1 32 -1 57 0 25 0 54 0 65 -1 11 0 38 0 60 1 22 0 47
1 55 0 8 -1 35 -1 60 0 25 0 68 1 95 0 28 0 59 1 70 2 11 0 45 1 75 0 30 0 64
-1 75 -1 144 0 155 -2 176 -18 41 -34 29 -59 -117 -253 -76 -101 -142 -188
-146 -194 -5 -5 -64 -84 -133 -175 -107 -142 -133 -170 -187 -204 -35 -21 -75
-47 -90 -57 -15 -11 -34 -19 -42 -19 -8 0 -16 -4 -18 -9 -1 -5 -52 -32 -113
-61 -60 -28 -118 -56 -127 -61 -10 -5 -25 -9 -33 -9 -8 0 -15 -5 -15 -12 0 -6
-3 -9 -6 -5 -5 5 -101 -30 -146 -54 -10 -5 -26 -9 -36 -9 -10 0 -23 -5 -30
-12 -7 -7 -12 -9 -12 -5 0 4 -9 3 -19 -2 -25 -14 -312 -87 -416 -107 -119 -22
-126 -24 -175 -28 -25 -3 -45 -6 -45 -6 0 -3 -33 -8 -95 -14 -36 -3 -89 -9
-119 -12 -140 -14 -215 -142 -154 -263 20 -41 34 -55 76 -75 53 -26 97 -28
214 -12 21 3 58 8 82 11 23 3 55 7 70 9 14 3 46 8 71 11 66 9 113 18 175 31
17 4 37 8 45 9 8 1 22 5 30 8 8 2 42 11 75 18 72 15 74 16 78 19 1 1 11 3 22
5 11 2 44 11 72 20 29 9 58 18 65 19 7 2 20 6 28 9 35 13 144 47 152 47 7 0
-18 -35 -118 -165 -8 -11 -23 -31 -32 -43 -9 -13 -35 -47 -57 -76 -22 -29 -50
-66 -62 -82 -91 -122 -470 -624 -487 -645 -12 -14 -28 -36 -36 -49 -8 -13 -24
-35 -36 -49 -11 -14 -207 -273 -434 -576 -227 -302 -423 -562 -434 -577 -12
-14 -31 -39 -42 -55 -12 -15 -94 -125 -183 -243 -89 -118 -171 -226 -181 -240
-10 -14 -110 -146 -222 -295 -272 -361 -322 -439 -394 -615 l-22 -55 -377 0
c-326 0 -379 2 -385 15 -4 8 -27 58 -51 110 -50 107 -102 196 -168 287 -25 34
-54 72 -63 85 -18 25 -163 217 -175 233 -5 6 -32 40 -61 77 -28 37 -52 72 -52
77 0 5 -4 11 -8 13 -5 2 -78 95 -162 208 -85 113 -158 210 -162 215 -5 6 -42
55 -84 110 -41 55 -84 112 -95 126 -50 65 -115 153 -124 168 -5 9 -12 18 -15
21 -13 12 -110 140 -110 145 0 3 -7 13 -16 23 -8 9 -34 42 -57 73 -95 127
-203 270 -214 284 -5 6 -31 40 -58 78 -27 37 -53 67 -58 67 -4 0 -5 5 -2 10 3
6 3 10 -2 10 -4 1 -24 23 -43 51 -19 28 -45 62 -58 77 -13 15 -30 39 -40 55
-9 15 -20 27 -24 27 -4 0 -8 6 -8 14 0 8 -4 16 -8 18 -5 2 -28 30 -53 63 -24
33 -49 66 -56 75 -12 15 -201 266 -235 312 -9 13 -63 84 -120 159 -57 74 -112
148 -123 163 -16 22 -137 183 -215 286 -11 14 -73 97 -139 185 -66 88 -124
165 -128 170 -5 6 -29 37 -53 70 -24 33 -55 72 -69 87 -13 15 -22 31 -18 34
10 10 252 4 427 -12 30 -3 80 -7 110 -9 74 -6 147 -14 190 -21 19 -3 53 -7 75
-8 22 -2 56 -6 75 -9 19 -4 71 -11 115 -17 44 -6 91 -13 105 -16 14 -2 41 -7
60 -10 52 -8 179 -30 228 -39 15 -3 41 -8 57 -10 17 -3 41 -7 55 -10 14 -3 79
-17 145 -30 205 -42 372 -78 530 -115 28 -6 61 -14 75 -16 14 -3 33 -7 42 -10
9 -3 25 -7 35 -9 10 -2 41 -9 68 -15 28 -6 57 -13 66 -15 8 -2 47 -11 85 -20
120 -28 158 -37 184 -42 30 -6 24 -4 140 -31 156 -35 333 -74 360 -78 14 -3
59 -12 100 -20 41 -9 86 -17 100 -19 14 -2 45 -8 70 -13 25 -6 61 -13 80 -16
19 -3 46 -8 60 -10 74 -14 215 -37 252 -42 24 -3 66 -9 93 -14 49 -9 119 -19
180 -25 17 -2 57 -6 90 -10 33 -3 74 -8 92 -10 29 -4 66 -8 208 -20 105 -9
184 -6 212 9 116 64 139 206 47 292 -40 37 -90 52 -199 59 -136 8 -179 12
-370 35 -38 4 -77 8 -85 9 -8 0 -42 5 -75 10 -33 6 -82 13 -110 16 -27 3 -57
8 -65 10 -8 2 -28 6 -45 9 -16 3 -73 12 -125 22 -52 9 -106 18 -118 19 -13 2
-45 8 -70 14 -26 5 -65 13 -87 17 -22 4 -47 9 -55 11 -8 1 -26 5 -40 7 -14 2
-32 6 -40 9 -14 5 -54 13 -110 22 -14 2 -56 11 -95 20 -38 9 -79 19 -90 21
-104 20 -134 27 -160 34 -34 11 -247 60 -285 66 -14 3 -54 12 -89 20 -36 9
-74 18 -85 20 -12 2 -57 13 -101 23 -44 11 -91 22 -105 25 -31 6 -106 22 -140
30 -14 4 -34 8 -45 10 -26 5 -174 37 -200 42 -17 4 -50 11 -143 29 -13 2 -31
6 -40 9 -20 6 -62 14 -112 21 -19 3 -46 8 -60 11 -14 3 -36 8 -50 10 -14 3
-61 11 -105 19 -76 14 -96 17 -190 30 -22 3 -66 10 -97 15 -31 6 -79 13 -105
16 -26 3 -64 7 -83 9 -19 2 -50 7 -69 9 -19 3 -67 8 -105 12 -39 3 -91 8 -116
10 -173 17 -399 27 -622 28 l-207 1 -120 160 c-66 88 -124 165 -129 170 -4 6
-28 37 -52 70 -25 33 -48 62 -52 65 -4 3 -9 19 -12 36 -9 49 20 72 90 73 31 0
59 3 62 5 2 3 12 2 21 -2 9 -4 34 -7 56 -5z"/>
<path d="M4447 5194 c-1 -1 -29 -5 -62 -7 -63 -6 -205 -40 -240 -58 -12 -6
-27 -11 -35 -13 -51 -10 -181 -84 -275 -155 -198 -150 -356 -392 -410 -625
-39 -170 -40 -382 -4 -531 30 -121 91 -258 160 -361 61 -93 71 -104 154 -186
131 -130 318 -238 490 -284 62 -16 69 -18 171 -32 68 -9 217 -8 279 3 22 3 49
8 60 9 66 10 169 44 262 87 24 10 47 19 53 19 5 0 10 5 10 10 0 6 4 10 10 10
8 0 56 29 140 87 26 18 185 175 210 208 118 156 191 333 224 550 8 47 9 227 2
272 -30 199 -85 347 -182 492 -16 24 -33 51 -39 60 -5 9 -53 59 -105 111 -85
86 -223 190 -250 190 -5 0 -10 4 -10 9 0 5 -8 11 -17 14 -10 3 -52 19 -92 37
-87 36 -197 66 -279 76 -51 6 -220 12 -225 8z m203 -371 c19 -3 42 -7 50 -9
36 -6 150 -48 150 -55 0 -4 11 -10 25 -13 62 -16 221 -155 282 -246 62 -93
105 -203 128 -322 7 -32 7 -176 1 -216 -26 -174 -115 -343 -243 -462 -52 -48
-142 -110 -161 -110 -7 0 -12 -4 -12 -9 0 -4 -26 -18 -57 -29 -193 -69 -353
-74 -530 -17 -268 87 -476 329 -519 600 -9 62 -11 196 -3 235 4 19 10 51 14
70 8 49 12 60 51 147 135 308 494 498 824 436z"/>
<path d="M4805 4188 c-60 -21 -107 -83 -118 -156 -7 -40 -30 -82 -64 -113 -35
-33 -61 -46 -122 -65 -57 -17 -96 -45 -116 -84 -65 -126 25 -272 164 -266 104
5 254 77 337 163 149 154 205 383 116 471 -53 52 -133 73 -197 50z"/>
</g>
</svg>
